<svg width="70" height="80" viewBox="0 0 70 80" fill="none" xmlns="http://www.w3.org/2000/svg">
<path d="M5.36368 79.3117H0.513062V69.6216H5.21055C7.19798 69.6216 8.42106 70.529 8.42106 72.1368C8.42106 73.3051 7.72644 74.0745 6.76726 74.3362C7.93495 74.5972 8.64326 75.5734 8.64326 76.6728C8.64326 78.3083 7.46188 79.3117 5.36303 79.3117H5.36368ZM4.61302 71.7662H3.23746V73.4707H4.61302C5.28028 73.4707 5.64192 73.1956 5.64192 72.6323C5.64192 72.0691 5.28028 71.7662 4.61302 71.7662ZM4.80786 75.3808H3.23746V77.14H4.82154C5.50248 77.14 5.84979 76.8648 5.84979 76.2881C5.84979 75.7113 5.47446 75.3808 4.8072 75.3808H4.80786Z" fill="#1D4ED8"/>
<path d="M16.0366 77.7309H12.5621L12.0343 79.3117H9.17114L12.7426 69.6216H15.8834L19.4412 79.3117H16.5644L16.0366 77.7309ZM14.2994 72.5357L13.2568 75.6695H15.3556L14.2994 72.5357Z" fill="#1D4ED8"/>
<path d="M19.7885 69.6216H27.7101V71.7656H25.0972V79.311H22.3734V71.7656H19.7885V69.6216Z" fill="#1D4ED8"/>
<path d="M28.7241 69.6216H31.4479V79.3117H28.7241V69.6216Z" fill="#1D4ED8"/>
<path d="M33.2684 69.7589H34.9783L38.3693 77.2496L41.7466 69.7589H43.4421V79.311H41.858V72.769L38.9114 79.311H37.8134L34.8532 72.769V79.311H33.2684V69.7589Z" fill="#AFC0C9"/>
<path d="M51.3494 77.3597H47.3048L46.6102 79.3117H44.9564L48.4171 69.7454H50.2514L53.7122 79.3117H52.0447L51.3494 77.3597ZM49.334 71.6419L47.7499 76.0812H50.905L49.3346 71.6419H49.334Z" fill="#AFC0C9"/>
<path d="M58.5479 75.4355H56.797V79.3117H55.2123V69.7589H58.5479C60.8409 69.7589 61.9669 71.051 61.9669 72.604C61.9669 73.965 61.0638 75.4355 58.5479 75.4355ZM58.5479 74.157C59.7847 74.157 60.3405 73.5661 60.3405 72.604C60.3405 71.6419 59.7847 71.0374 58.5479 71.0374H56.797V74.1577H58.5479V74.157Z" fill="#AFC0C9"/>
<path d="M66.6637 79.4077C64.7316 79.4077 63.2446 78.3631 63.2446 76.6728H64.9401C65.0099 77.4564 65.5657 78.0886 66.6637 78.0886C67.7616 78.0886 68.4009 77.4977 68.4009 76.687C68.4009 74.3781 63.2726 75.8763 63.2726 72.3578C63.2726 70.6811 64.6208 69.6365 66.5946 69.6365C68.4432 69.6365 69.7497 70.5986 69.8885 72.2341H68.1376C68.0822 71.5884 67.5121 70.9968 66.5112 70.9698C65.5937 70.9421 64.8854 71.3822 64.8854 72.3031C64.8854 74.4612 69.9999 73.1137 69.9999 76.6052C69.9999 78.0345 68.8185 79.409 66.6643 79.409L66.6637 79.4077Z" fill="#AFC0C9"/>
<path d="M35.7001 64C41.5602 64 46.3108 63.7339 46.3108 63.4056C46.3108 63.0773 41.5602 62.8112 35.7001 62.8112C29.84 62.8112 25.0895 63.0773 25.0895 63.4056C25.0895 63.7339 29.84 64 35.7001 64Z" fill="#AFC0C9"/>
<path d="M50.3386 19.969C49.2739 18.9162 48.114 17.9927 46.8786 17.2075V13.3975L52.745 16.3235V18.6025H53.8828V15.683L53.9028 15.6414L53.8828 15.6304V12.7943H52.745V14.7267L46.8786 6.69217V6.10652H46.4505L46.4017 6.04072L46.3085 6.10652L46.3329 5.99685L26.1097 1.77887L22.5455 0L22.0331 1.00459L25.7149 2.8405V16.5034C24.7168 17.0496 23.7609 17.6769 22.8582 18.3876V16.6811H21.7204V19.3483C21.4986 19.5501 21.279 19.7563 21.0639 19.9668C17.1536 23.8338 15 28.9731 15 34.4413C15 39.9095 17.1536 45.0487 21.0639 48.9158L35.7001 63.3902L50.3363 48.9158C54.2466 45.0487 56.398 39.9095 56.398 34.4413C56.398 28.9731 54.2444 23.8338 50.3341 19.9668L50.3386 19.969ZM49.5357 20.763C55.5818 26.7423 56.8349 35.6959 53.2929 42.9101H46.8786V18.5586C47.819 19.2079 48.7084 19.9449 49.5357 20.763ZM52.6896 15.0338L46.8786 12.1363V7.07602L52.6896 15.0338ZM45.7585 6.10432H45.7407V11.5682L26.9015 2.17369L45.7563 6.10652L45.7585 6.10432ZM25.9411 2.95455L45.7385 12.8294V16.5341C42.7022 14.8627 39.271 13.9744 35.7001 13.9744C34.376 13.9744 33.0718 14.0972 31.7987 14.3363V10.8597H30.6609V14.5819C29.0152 14.9877 27.4316 15.5909 25.9411 16.3806V2.95455ZM30.6609 15.7445V19.9712L22.856 24.2331V19.8506C25.1294 17.8874 27.7909 16.4946 30.6609 15.7423V15.7445ZM39.6037 27.8325L34.4736 25.0315V22.7174L39.6037 25.5184V27.8325ZM40.7415 49.6878H47.9543L40.7415 56.8209V49.6878ZM39.6037 31.4297L34.4736 28.6287V26.3146L39.6037 29.1156V31.4297ZM22.8582 45.9612V32.7129L30.6631 28.451V56.8209L22.8582 49.1022V45.9612ZM30.6631 23.5684L22.8582 27.8303V25.5162L30.6631 21.2544V23.5684ZM30.6631 24.8538V27.1679L22.8582 31.4297V29.1156L30.6631 24.8538ZM31.801 24.8538L33.3402 25.6939V28.008L31.801 27.1679V24.8538ZM33.3402 24.4107L31.801 23.5706V21.2566L33.3402 22.0966V24.4107ZM16.1422 34.4457C16.1422 29.3481 18.1229 24.5533 21.7248 20.9166V47.977C18.1251 44.3403 16.1422 39.5454 16.1422 34.4479V34.4457ZM31.8032 57.9461V28.451L39.6081 32.7129V57.9439L35.7068 61.8022L31.8054 57.9439L31.8032 57.9461ZM49.5379 48.1261L49.0943 48.5648H40.7437V16.6811H39.6059V24.2331L34.4758 21.432V18.6003H33.338V20.8113L31.7987 19.9712V15.4813C33.0696 15.229 34.376 15.0974 35.7001 15.0974C39.2932 15.0974 42.7354 16.0494 45.7385 17.8304V42.9101H40.7725V44.0354H52.6896C51.8445 45.4984 50.7932 46.8759 49.5312 48.1239L49.5379 48.1261Z" fill="#1D4ED8"/>
</svg>
